<svg xmlns="http://www.w3.org/2000/svg" width="14" height="16.211" viewBox="0 0 14 16.211"><defs><style>.a{fill:gray;}</style></defs><g transform="translate(-1252.5 -217)"><path class="a" d="M5.684,17.211h8.842A1.478,1.478,0,0,0,16,15.737V5.421H14.526V15.737H5.684ZM3.474,14.263h8.105a1.478,1.478,0,0,0,1.474-1.474V2.474A1.478,1.478,0,0,0,11.579,1H3.474A1.478,1.478,0,0,0,2,2.474V12.789A1.478,1.478,0,0,0,3.474,14.263Zm0-11.789h8.105V12.789H3.474Z" transform="translate(1250.5 216)"/><path class="a" d="M11,8.429H8.429V11H7.571V8.429H5V7.571H7.571V5h.857V7.571H11Z" transform="translate(1250 216)"/></g></svg>