<svg xmlns="http://www.w3.org/2000/svg" width="40" height="46.144" viewBox="0 0 40 46.144"><defs><style>.a{fill:gray;opacity:0.995;}</style></defs><path class="a" d="M36.114,24.707a12.5,12.5,0,0,0-1.773-.825,12.5,12.5,0,0,0,1.773-.825,12.4,12.4,0,0,0,6.186-10.7,12.386,12.386,0,0,0-12.371,0,13.057,13.057,0,0,0-1.608,1.113A12.268,12.268,0,0,0,22.3.81a12.268,12.268,0,0,0-6.021,12.66,11.252,11.252,0,0,0-1.608-1.134,12.387,12.387,0,0,0-12.371,0,12.309,12.309,0,0,0,6.186,10.7,12.5,12.5,0,0,0,1.773.825A12.2,12.2,0,0,0,2.3,35.387a12.386,12.386,0,0,0,12.371,0,13.057,13.057,0,0,0,1.608-1.113,12.819,12.819,0,0,0-.165,1.979,12.365,12.365,0,0,0,6.186,10.7,12.268,12.268,0,0,0,6.021-12.66,11.135,11.135,0,0,0,1.608,1.113,12.387,12.387,0,0,0,12.371,0,12.4,12.4,0,0,0-6.186-10.7ZM22.3,32.13a8.247,8.247,0,1,1,8.247-8.247A8.245,8.245,0,0,1,22.3,32.13Z" transform="translate(-2.3 -0.81)"/></svg>