<svg xmlns="http://www.w3.org/2000/svg" width="14" height="14" viewBox="0 0 14 14"><defs><style>.a{fill:gray;}</style></defs><path class="a" d="M7.348,5.948A2.728,2.728,0,0,0,7.6,4.8,2.8,2.8,0,1,0,4.8,7.6a2.728,2.728,0,0,0,1.148-.252L7.6,9,5.948,10.652A2.728,2.728,0,0,0,4.8,10.4a2.8,2.8,0,1,0,2.8,2.8,2.728,2.728,0,0,0-.252-1.148L9,10.4l4.9,4.9H16v-.7ZM4.8,6.2A1.4,1.4,0,1,1,6.2,4.8,1.4,1.4,0,0,1,4.8,6.2Zm0,8.4a1.4,1.4,0,1,1,1.4-1.4A1.4,1.4,0,0,1,4.8,14.6ZM9,9.35A.35.35,0,1,1,9.35,9,.347.347,0,0,1,9,9.35ZM13.9,2.7,9.7,6.9l1.4,1.4L16,3.4V2.7Z" transform="translate(-2 -2)"/></svg>