<svg xmlns="http://www.w3.org/2000/svg" width="20" height="20" viewBox="0 0 20 20"><defs><style>.a{fill:#ed6900;}</style></defs><g transform="translate(0 -15.5)"><rect class="a" width="20" height="2.958" transform="translate(0 32.542)"/><path class="a" d="M10.66,35.147h0A2.038,2.038,0,0,1,8.9,32.929V17.718A2.037,2.037,0,0,1,10.66,15.5h0a2.038,2.038,0,0,1,1.76,2.218V32.912A2.054,2.054,0,0,1,10.66,35.147Z" transform="translate(-7.713 0)"/><g transform="translate(13.813 24.761)"><path class="a" d="M111.987,79.861V72.987a1.944,1.944,0,1,0-3.787,0v6.874h3.787Z" transform="translate(-107.587 -70.6)"/><rect class="a" width="5" height="6.303" transform="translate(0 4.084)"/></g><g transform="translate(8.227 21.416)"><path class="a" d="M64.247,56.226H62.1a.462.462,0,0,1-.4-.5V55.6a.463.463,0,0,1,.4-.5h2.147a.462.462,0,0,1,.4.5v.118A.463.463,0,0,1,64.247,56.226Z" transform="translate(-61.7 -54.361)"/><path class="a" d="M64.167,76.856H62.193a.567.567,0,0,1-.493-.622V66.722a.568.568,0,0,1,.493-.622h1.96a.567.567,0,0,1,.493.622v9.529A.551.551,0,0,1,64.167,76.856Z" transform="translate(-61.7 -63.512)"/><rect class="a" width="2.347" height="1.479" transform="translate(0.307 1.496)"/><rect class="a" width="0.587" height="1.479" transform="translate(1.187)"/></g><path class="a" d="M41.193,33.527c-1.733,0-2.347.992-2.347,1.849v6.3H34.433c-.28,0-.293-.739-.293-.739V37.611c0-1.176-.573-1.479-.88-1.479h-.147V31.863a2.464,2.464,0,0,0-.56-1.748,1.734,1.734,0,0,0-1.547-.471l.093.739a1.332,1.332,0,0,1,1.08.3,1.712,1.712,0,0,1,.347,1.176v4.269H30.9v.739h1.613v8.706H33.1V36.871h.133c.053,0,.307.067.307.74v3.345c0,.521.187,1.479.88,1.479h4.413v2.958h.587V42.434h3.827V35.392A1.88,1.88,0,0,0,41.193,33.527Zm1.467,8.168H39.433v-6.3c0-.521.467-1.109,1.76-1.109.96,0,1.467.555,1.467,1.109Z" transform="translate(-26.78 -11.741)"/></g></svg>